<mxfile host="app.diagrams.net" modified="2022-09-19T19:33:14.468Z" agent="5.0 (Windows NT 10.0; Win64; x64) AppleWebKit/537.36 (KHTML, like Gecko) Chrome/105.0.0.0 Safari/537.36" etag="F1hd3iSqgB20rAqqOYAg" version="20.3.3" type="github">
  <diagram id="DtHThaNvtSPVXgsZR6Tc" name="Halaman-1">
    <mxGraphModel dx="1578" dy="876" grid="1" gridSize="10" guides="1" tooltips="1" connect="1" arrows="1" fold="1" page="1" pageScale="1" pageWidth="827" pageHeight="1169" math="0" shadow="0">
      <root>
        <mxCell id="0" />
        <mxCell id="1" parent="0" />
        <mxCell id="-cSc5FBcqZ1iEUzsDInX-1" value="" style="line;strokeWidth=2;html=1;" vertex="1" parent="1">
          <mxGeometry x="45" y="30" width="315" height="10" as="geometry" />
        </mxCell>
        <mxCell id="-cSc5FBcqZ1iEUzsDInX-2" value="" style="line;strokeWidth=2;direction=south;html=1;" vertex="1" parent="1">
          <mxGeometry x="40" y="35" width="10" height="205" as="geometry" />
        </mxCell>
        <mxCell id="-cSc5FBcqZ1iEUzsDInX-3" value="&lt;font style=&quot;font-size: 18px;&quot;&gt;tbl_admin&lt;/font&gt;" style="text;html=1;align=center;verticalAlign=middle;resizable=0;points=[];autosize=1;strokeColor=none;fillColor=none;" vertex="1" parent="1">
          <mxGeometry x="180" y="40" width="100" height="40" as="geometry" />
        </mxCell>
        <mxCell id="-cSc5FBcqZ1iEUzsDInX-4" value="Primary" style="text;html=1;align=center;verticalAlign=middle;resizable=0;points=[];autosize=1;strokeColor=none;fillColor=none;fontSize=18;" vertex="1" parent="1">
          <mxGeometry x="40" y="80" width="90" height="40" as="geometry" />
        </mxCell>
        <mxCell id="-cSc5FBcqZ1iEUzsDInX-5" value="" style="line;strokeWidth=2;html=1;fontSize=18;" vertex="1" parent="1">
          <mxGeometry x="45" y="70" width="315" height="10" as="geometry" />
        </mxCell>
        <mxCell id="-cSc5FBcqZ1iEUzsDInX-6" value="" style="line;strokeWidth=2;direction=south;html=1;fontSize=18;" vertex="1" parent="1">
          <mxGeometry x="130" y="75" width="10" height="165" as="geometry" />
        </mxCell>
        <mxCell id="-cSc5FBcqZ1iEUzsDInX-7" value="id" style="text;html=1;align=center;verticalAlign=middle;resizable=0;points=[];autosize=1;strokeColor=none;fillColor=none;fontSize=18;" vertex="1" parent="1">
          <mxGeometry x="130" y="80" width="40" height="40" as="geometry" />
        </mxCell>
        <mxCell id="-cSc5FBcqZ1iEUzsDInX-8" value="full_name" style="text;html=1;align=center;verticalAlign=middle;resizable=0;points=[];autosize=1;strokeColor=none;fillColor=none;fontSize=18;" vertex="1" parent="1">
          <mxGeometry x="130" y="120" width="100" height="40" as="geometry" />
        </mxCell>
        <mxCell id="-cSc5FBcqZ1iEUzsDInX-11" value="username" style="text;html=1;align=center;verticalAlign=middle;resizable=0;points=[];autosize=1;strokeColor=none;fillColor=none;fontSize=18;" vertex="1" parent="1">
          <mxGeometry x="130" y="160" width="100" height="40" as="geometry" />
        </mxCell>
        <mxCell id="-cSc5FBcqZ1iEUzsDInX-12" value="password" style="text;html=1;align=center;verticalAlign=middle;resizable=0;points=[];autosize=1;strokeColor=none;fillColor=none;fontSize=18;" vertex="1" parent="1">
          <mxGeometry x="130" y="200" width="100" height="40" as="geometry" />
        </mxCell>
        <mxCell id="-cSc5FBcqZ1iEUzsDInX-13" value="" style="line;strokeWidth=2;direction=south;html=1;fontSize=18;" vertex="1" parent="1">
          <mxGeometry x="235" y="75" width="10" height="165" as="geometry" />
        </mxCell>
        <mxCell id="-cSc5FBcqZ1iEUzsDInX-14" value="int(10)" style="text;html=1;align=center;verticalAlign=middle;resizable=0;points=[];autosize=1;strokeColor=none;fillColor=none;fontSize=18;" vertex="1" parent="1">
          <mxGeometry x="245" y="80" width="70" height="40" as="geometry" />
        </mxCell>
        <mxCell id="-cSc5FBcqZ1iEUzsDInX-15" value="varchar(100)" style="text;html=1;align=center;verticalAlign=middle;resizable=0;points=[];autosize=1;strokeColor=none;fillColor=none;fontSize=18;" vertex="1" parent="1">
          <mxGeometry x="235" y="120" width="130" height="40" as="geometry" />
        </mxCell>
        <mxCell id="-cSc5FBcqZ1iEUzsDInX-16" value="varchar(100)" style="text;html=1;align=center;verticalAlign=middle;resizable=0;points=[];autosize=1;strokeColor=none;fillColor=none;fontSize=18;" vertex="1" parent="1">
          <mxGeometry x="235" y="160" width="130" height="40" as="geometry" />
        </mxCell>
        <mxCell id="-cSc5FBcqZ1iEUzsDInX-17" value="varchar(255)" style="text;html=1;align=center;verticalAlign=middle;resizable=0;points=[];autosize=1;strokeColor=none;fillColor=none;fontSize=18;" vertex="1" parent="1">
          <mxGeometry x="235" y="200" width="130" height="40" as="geometry" />
        </mxCell>
        <mxCell id="-cSc5FBcqZ1iEUzsDInX-18" value="" style="line;strokeWidth=2;html=1;fontSize=18;" vertex="1" parent="1">
          <mxGeometry x="45" y="230" width="315" height="10" as="geometry" />
        </mxCell>
        <mxCell id="-cSc5FBcqZ1iEUzsDInX-19" value="" style="line;strokeWidth=2;direction=south;html=1;fontSize=18;" vertex="1" parent="1">
          <mxGeometry x="355" y="30" width="10" height="205" as="geometry" />
        </mxCell>
        <mxCell id="-cSc5FBcqZ1iEUzsDInX-45" value="" style="line;strokeWidth=2;direction=south;html=1;fontSize=18;" vertex="1" parent="1">
          <mxGeometry x="400" y="35" width="10" height="245" as="geometry" />
        </mxCell>
        <mxCell id="-cSc5FBcqZ1iEUzsDInX-46" value="" style="line;strokeWidth=2;html=1;fontSize=18;" vertex="1" parent="1">
          <mxGeometry x="400" y="70" width="240" height="10" as="geometry" />
        </mxCell>
        <mxCell id="-cSc5FBcqZ1iEUzsDInX-47" value="" style="line;strokeWidth=2;html=1;fontSize=18;" vertex="1" parent="1">
          <mxGeometry x="400" y="30" width="240" height="10" as="geometry" />
        </mxCell>
        <mxCell id="-cSc5FBcqZ1iEUzsDInX-48" value="Primary" style="text;html=1;align=center;verticalAlign=middle;resizable=0;points=[];autosize=1;strokeColor=none;fillColor=none;fontSize=18;" vertex="1" parent="1">
          <mxGeometry x="405" y="80" width="90" height="40" as="geometry" />
        </mxCell>
        <mxCell id="-cSc5FBcqZ1iEUzsDInX-49" value="tbl_category" style="text;html=1;align=center;verticalAlign=middle;resizable=0;points=[];autosize=1;strokeColor=none;fillColor=none;fontSize=18;" vertex="1" parent="1">
          <mxGeometry x="480" y="35" width="120" height="40" as="geometry" />
        </mxCell>
        <mxCell id="-cSc5FBcqZ1iEUzsDInX-50" value="" style="line;strokeWidth=2;direction=south;html=1;fontSize=18;" vertex="1" parent="1">
          <mxGeometry x="495" y="75" width="10" height="205" as="geometry" />
        </mxCell>
        <mxCell id="-cSc5FBcqZ1iEUzsDInX-51" value="id" style="text;html=1;align=center;verticalAlign=middle;resizable=0;points=[];autosize=1;strokeColor=none;fillColor=none;fontSize=18;" vertex="1" parent="1">
          <mxGeometry x="500" y="80" width="40" height="40" as="geometry" />
        </mxCell>
        <mxCell id="-cSc5FBcqZ1iEUzsDInX-53" value="title" style="text;html=1;align=center;verticalAlign=middle;resizable=0;points=[];autosize=1;strokeColor=none;fillColor=none;fontSize=18;" vertex="1" parent="1">
          <mxGeometry x="500" y="117.5" width="50" height="40" as="geometry" />
        </mxCell>
        <mxCell id="-cSc5FBcqZ1iEUzsDInX-54" value="image_name" style="text;html=1;align=center;verticalAlign=middle;resizable=0;points=[];autosize=1;strokeColor=none;fillColor=none;fontSize=18;" vertex="1" parent="1">
          <mxGeometry x="495" y="157.5" width="130" height="40" as="geometry" />
        </mxCell>
        <mxCell id="-cSc5FBcqZ1iEUzsDInX-55" value="featured" style="text;html=1;align=center;verticalAlign=middle;resizable=0;points=[];autosize=1;strokeColor=none;fillColor=none;fontSize=18;" vertex="1" parent="1">
          <mxGeometry x="495" y="200" width="90" height="40" as="geometry" />
        </mxCell>
        <mxCell id="-cSc5FBcqZ1iEUzsDInX-56" value="active" style="text;html=1;align=center;verticalAlign=middle;resizable=0;points=[];autosize=1;strokeColor=none;fillColor=none;fontSize=18;" vertex="1" parent="1">
          <mxGeometry x="495" y="240" width="70" height="40" as="geometry" />
        </mxCell>
        <mxCell id="-cSc5FBcqZ1iEUzsDInX-57" value="" style="line;strokeWidth=2;direction=south;html=1;fontSize=18;" vertex="1" parent="1">
          <mxGeometry x="630" y="35" width="10" height="245" as="geometry" />
        </mxCell>
        <mxCell id="-cSc5FBcqZ1iEUzsDInX-85" style="edgeStyle=orthogonalEdgeStyle;rounded=0;orthogonalLoop=1;jettySize=auto;html=1;entryX=0.682;entryY=0.415;entryDx=0;entryDy=0;entryPerimeter=0;fontSize=18;" edge="1" parent="1" source="-cSc5FBcqZ1iEUzsDInX-58" target="-cSc5FBcqZ1iEUzsDInX-61">
          <mxGeometry relative="1" as="geometry" />
        </mxCell>
        <mxCell id="-cSc5FBcqZ1iEUzsDInX-58" value="" style="line;strokeWidth=2;html=1;fontSize=18;" vertex="1" parent="1">
          <mxGeometry x="405" y="270" width="235" height="10" as="geometry" />
        </mxCell>
        <mxCell id="-cSc5FBcqZ1iEUzsDInX-59" value="tbl_food" style="text;html=1;align=center;verticalAlign=middle;resizable=0;points=[];autosize=1;strokeColor=none;fillColor=none;fontSize=18;" vertex="1" parent="1">
          <mxGeometry x="520" y="390" width="90" height="40" as="geometry" />
        </mxCell>
        <mxCell id="-cSc5FBcqZ1iEUzsDInX-60" value="" style="line;strokeWidth=2;html=1;fontSize=18;" vertex="1" parent="1">
          <mxGeometry x="400" y="430" width="400" height="10" as="geometry" />
        </mxCell>
        <mxCell id="-cSc5FBcqZ1iEUzsDInX-61" value="" style="line;strokeWidth=2;html=1;fontSize=18;" vertex="1" parent="1">
          <mxGeometry x="400" y="380" width="400" height="10" as="geometry" />
        </mxCell>
        <mxCell id="-cSc5FBcqZ1iEUzsDInX-62" value="" style="line;strokeWidth=2;direction=south;html=1;fontSize=18;" vertex="1" parent="1">
          <mxGeometry x="395" y="380" width="10" height="380" as="geometry" />
        </mxCell>
        <mxCell id="-cSc5FBcqZ1iEUzsDInX-63" value="Primary" style="text;html=1;align=center;verticalAlign=middle;resizable=0;points=[];autosize=1;strokeColor=none;fillColor=none;fontSize=18;" vertex="1" parent="1">
          <mxGeometry x="400" y="440" width="90" height="40" as="geometry" />
        </mxCell>
        <mxCell id="-cSc5FBcqZ1iEUzsDInX-64" value="" style="line;strokeWidth=2;direction=south;html=1;fontSize=18;" vertex="1" parent="1">
          <mxGeometry x="500" y="430" width="10" height="330" as="geometry" />
        </mxCell>
        <mxCell id="-cSc5FBcqZ1iEUzsDInX-65" value="id" style="text;html=1;align=center;verticalAlign=middle;resizable=0;points=[];autosize=1;strokeColor=none;fillColor=none;fontSize=18;" vertex="1" parent="1">
          <mxGeometry x="510" y="440" width="40" height="40" as="geometry" />
        </mxCell>
        <mxCell id="-cSc5FBcqZ1iEUzsDInX-66" value="title" style="text;html=1;align=center;verticalAlign=middle;resizable=0;points=[];autosize=1;strokeColor=none;fillColor=none;fontSize=18;" vertex="1" parent="1">
          <mxGeometry x="505" y="480" width="50" height="40" as="geometry" />
        </mxCell>
        <mxCell id="-cSc5FBcqZ1iEUzsDInX-67" value="description" style="text;html=1;align=center;verticalAlign=middle;resizable=0;points=[];autosize=1;strokeColor=none;fillColor=none;fontSize=18;" vertex="1" parent="1">
          <mxGeometry x="505" y="525" width="110" height="40" as="geometry" />
        </mxCell>
        <mxCell id="-cSc5FBcqZ1iEUzsDInX-68" value="price" style="text;html=1;align=center;verticalAlign=middle;resizable=0;points=[];autosize=1;strokeColor=none;fillColor=none;fontSize=18;" vertex="1" parent="1">
          <mxGeometry x="505" y="565" width="60" height="40" as="geometry" />
        </mxCell>
        <mxCell id="-cSc5FBcqZ1iEUzsDInX-69" value="image_name" style="text;html=1;align=center;verticalAlign=middle;resizable=0;points=[];autosize=1;strokeColor=none;fillColor=none;fontSize=18;" vertex="1" parent="1">
          <mxGeometry x="505" y="605" width="130" height="40" as="geometry" />
        </mxCell>
        <mxCell id="-cSc5FBcqZ1iEUzsDInX-70" value="category_id" style="text;html=1;align=center;verticalAlign=middle;resizable=0;points=[];autosize=1;strokeColor=none;fillColor=none;fontSize=18;" vertex="1" parent="1">
          <mxGeometry x="505" y="645" width="120" height="40" as="geometry" />
        </mxCell>
        <mxCell id="-cSc5FBcqZ1iEUzsDInX-71" value="featured" style="text;html=1;align=center;verticalAlign=middle;resizable=0;points=[];autosize=1;strokeColor=none;fillColor=none;fontSize=18;" vertex="1" parent="1">
          <mxGeometry x="505" y="685" width="90" height="40" as="geometry" />
        </mxCell>
        <mxCell id="-cSc5FBcqZ1iEUzsDInX-72" value="active" style="text;html=1;align=center;verticalAlign=middle;resizable=0;points=[];autosize=1;strokeColor=none;fillColor=none;fontSize=18;" vertex="1" parent="1">
          <mxGeometry x="505" y="720" width="70" height="40" as="geometry" />
        </mxCell>
        <mxCell id="-cSc5FBcqZ1iEUzsDInX-73" value="Foreign" style="text;html=1;align=center;verticalAlign=middle;resizable=0;points=[];autosize=1;strokeColor=none;fillColor=none;fontSize=18;" vertex="1" parent="1">
          <mxGeometry x="405" y="640" width="80" height="40" as="geometry" />
        </mxCell>
        <mxCell id="-cSc5FBcqZ1iEUzsDInX-74" value="" style="line;strokeWidth=2;direction=south;html=1;fontSize=18;" vertex="1" parent="1">
          <mxGeometry x="650" y="430" width="10" height="330" as="geometry" />
        </mxCell>
        <mxCell id="-cSc5FBcqZ1iEUzsDInX-75" value="" style="line;strokeWidth=2;direction=south;html=1;fontSize=18;" vertex="1" parent="1">
          <mxGeometry x="790" y="380" width="10" height="380" as="geometry" />
        </mxCell>
        <mxCell id="-cSc5FBcqZ1iEUzsDInX-76" value="int(10)" style="text;html=1;align=center;verticalAlign=middle;resizable=0;points=[];autosize=1;strokeColor=none;fillColor=none;fontSize=18;" vertex="1" parent="1">
          <mxGeometry x="680" y="440" width="70" height="40" as="geometry" />
        </mxCell>
        <mxCell id="-cSc5FBcqZ1iEUzsDInX-77" value="varchar(150)" style="text;html=1;align=center;verticalAlign=middle;resizable=0;points=[];autosize=1;strokeColor=none;fillColor=none;fontSize=18;" vertex="1" parent="1">
          <mxGeometry x="660" y="480" width="130" height="40" as="geometry" />
        </mxCell>
        <mxCell id="-cSc5FBcqZ1iEUzsDInX-78" value="varchar(255)" style="text;html=1;align=center;verticalAlign=middle;resizable=0;points=[];autosize=1;strokeColor=none;fillColor=none;fontSize=18;" vertex="1" parent="1">
          <mxGeometry x="660" y="520" width="130" height="40" as="geometry" />
        </mxCell>
        <mxCell id="-cSc5FBcqZ1iEUzsDInX-79" value="decimal(10,2)" style="text;html=1;align=center;verticalAlign=middle;resizable=0;points=[];autosize=1;strokeColor=none;fillColor=none;fontSize=18;" vertex="1" parent="1">
          <mxGeometry x="660" y="560" width="130" height="40" as="geometry" />
        </mxCell>
        <mxCell id="-cSc5FBcqZ1iEUzsDInX-80" value="varchar(255)" style="text;html=1;align=center;verticalAlign=middle;resizable=0;points=[];autosize=1;strokeColor=none;fillColor=none;fontSize=18;" vertex="1" parent="1">
          <mxGeometry x="660" y="600" width="130" height="40" as="geometry" />
        </mxCell>
        <mxCell id="-cSc5FBcqZ1iEUzsDInX-81" value="int(10)" style="text;html=1;align=center;verticalAlign=middle;resizable=0;points=[];autosize=1;strokeColor=none;fillColor=none;fontSize=18;" vertex="1" parent="1">
          <mxGeometry x="680" y="640" width="70" height="40" as="geometry" />
        </mxCell>
        <mxCell id="-cSc5FBcqZ1iEUzsDInX-82" value="varchar(10)" style="text;html=1;align=center;verticalAlign=middle;resizable=0;points=[];autosize=1;strokeColor=none;fillColor=none;fontSize=18;" vertex="1" parent="1">
          <mxGeometry x="655" y="680" width="120" height="40" as="geometry" />
        </mxCell>
        <mxCell id="-cSc5FBcqZ1iEUzsDInX-83" value="varchar(10)" style="text;html=1;align=center;verticalAlign=middle;resizable=0;points=[];autosize=1;strokeColor=none;fillColor=none;fontSize=18;" vertex="1" parent="1">
          <mxGeometry x="655" y="720" width="120" height="40" as="geometry" />
        </mxCell>
        <mxCell id="-cSc5FBcqZ1iEUzsDInX-84" value="" style="line;strokeWidth=2;html=1;fontSize=18;" vertex="1" parent="1">
          <mxGeometry x="395" y="750" width="405" height="10" as="geometry" />
        </mxCell>
        <mxCell id="-cSc5FBcqZ1iEUzsDInX-86" value="tbl_order" style="text;html=1;align=center;verticalAlign=middle;resizable=0;points=[];autosize=1;strokeColor=none;fillColor=none;fontSize=18;" vertex="1" parent="1">
          <mxGeometry x="135" y="400" width="90" height="40" as="geometry" />
        </mxCell>
        <mxCell id="-cSc5FBcqZ1iEUzsDInX-87" value="" style="line;strokeWidth=2;html=1;fontSize=18;" vertex="1" parent="1">
          <mxGeometry x="10" y="440" width="380" height="10" as="geometry" />
        </mxCell>
        <mxCell id="-cSc5FBcqZ1iEUzsDInX-88" value="" style="line;strokeWidth=2;html=1;fontSize=18;" vertex="1" parent="1">
          <mxGeometry x="10" y="400" width="380" height="10" as="geometry" />
        </mxCell>
        <mxCell id="-cSc5FBcqZ1iEUzsDInX-90" value="" style="line;strokeWidth=2;direction=south;html=1;fontSize=18;" vertex="1" parent="1">
          <mxGeometry x="10" y="400" width="10" height="480" as="geometry" />
        </mxCell>
        <mxCell id="-cSc5FBcqZ1iEUzsDInX-91" value="Primary" style="text;html=1;align=center;verticalAlign=middle;resizable=0;points=[];autosize=1;strokeColor=none;fillColor=none;fontSize=18;" vertex="1" parent="1">
          <mxGeometry x="20" y="450" width="90" height="40" as="geometry" />
        </mxCell>
        <mxCell id="-cSc5FBcqZ1iEUzsDInX-92" value="" style="line;strokeWidth=2;direction=south;html=1;fontSize=18;" vertex="1" parent="1">
          <mxGeometry x="110" y="445" width="10" height="435" as="geometry" />
        </mxCell>
        <mxCell id="-cSc5FBcqZ1iEUzsDInX-93" value="id" style="text;html=1;align=center;verticalAlign=middle;resizable=0;points=[];autosize=1;strokeColor=none;fillColor=none;fontSize=18;" vertex="1" parent="1">
          <mxGeometry x="110" y="450" width="40" height="40" as="geometry" />
        </mxCell>
        <mxCell id="-cSc5FBcqZ1iEUzsDInX-94" value="food" style="text;html=1;align=center;verticalAlign=middle;resizable=0;points=[];autosize=1;strokeColor=none;fillColor=none;fontSize=18;" vertex="1" parent="1">
          <mxGeometry x="110" y="480" width="60" height="40" as="geometry" />
        </mxCell>
        <mxCell id="-cSc5FBcqZ1iEUzsDInX-95" value="price" style="text;html=1;align=center;verticalAlign=middle;resizable=0;points=[];autosize=1;strokeColor=none;fillColor=none;fontSize=18;" vertex="1" parent="1">
          <mxGeometry x="110" y="520" width="60" height="40" as="geometry" />
        </mxCell>
        <mxCell id="-cSc5FBcqZ1iEUzsDInX-96" value="qty" style="text;html=1;align=center;verticalAlign=middle;resizable=0;points=[];autosize=1;strokeColor=none;fillColor=none;fontSize=18;" vertex="1" parent="1">
          <mxGeometry x="110" y="555" width="50" height="40" as="geometry" />
        </mxCell>
        <mxCell id="-cSc5FBcqZ1iEUzsDInX-97" value="total" style="text;html=1;align=center;verticalAlign=middle;resizable=0;points=[];autosize=1;strokeColor=none;fillColor=none;fontSize=18;" vertex="1" parent="1">
          <mxGeometry x="105" y="600" width="60" height="40" as="geometry" />
        </mxCell>
        <mxCell id="-cSc5FBcqZ1iEUzsDInX-98" value="order_date" style="text;html=1;align=center;verticalAlign=middle;resizable=0;points=[];autosize=1;strokeColor=none;fillColor=none;fontSize=18;" vertex="1" parent="1">
          <mxGeometry x="110" y="640" width="110" height="40" as="geometry" />
        </mxCell>
        <mxCell id="-cSc5FBcqZ1iEUzsDInX-99" value="status" style="text;html=1;align=center;verticalAlign=middle;resizable=0;points=[];autosize=1;strokeColor=none;fillColor=none;fontSize=18;" vertex="1" parent="1">
          <mxGeometry x="110" y="680" width="70" height="40" as="geometry" />
        </mxCell>
        <mxCell id="-cSc5FBcqZ1iEUzsDInX-100" value="customer_name" style="text;html=1;align=center;verticalAlign=middle;resizable=0;points=[];autosize=1;strokeColor=none;fillColor=none;fontSize=18;" vertex="1" parent="1">
          <mxGeometry x="110" y="720" width="150" height="40" as="geometry" />
        </mxCell>
        <mxCell id="-cSc5FBcqZ1iEUzsDInX-101" value="customer_contact" style="text;html=1;align=center;verticalAlign=middle;resizable=0;points=[];autosize=1;strokeColor=none;fillColor=none;fontSize=18;" vertex="1" parent="1">
          <mxGeometry x="105" y="760" width="170" height="40" as="geometry" />
        </mxCell>
        <mxCell id="-cSc5FBcqZ1iEUzsDInX-102" value="customer_email" style="text;html=1;align=center;verticalAlign=middle;resizable=0;points=[];autosize=1;strokeColor=none;fillColor=none;fontSize=18;" vertex="1" parent="1">
          <mxGeometry x="110" y="800" width="150" height="40" as="geometry" />
        </mxCell>
        <mxCell id="-cSc5FBcqZ1iEUzsDInX-103" value="customer_address" style="text;html=1;align=center;verticalAlign=middle;resizable=0;points=[];autosize=1;strokeColor=none;fillColor=none;fontSize=18;" vertex="1" parent="1">
          <mxGeometry x="110" y="840" width="170" height="40" as="geometry" />
        </mxCell>
        <mxCell id="-cSc5FBcqZ1iEUzsDInX-104" value="" style="line;strokeWidth=2;direction=south;html=1;fontSize=18;" vertex="1" parent="1">
          <mxGeometry x="270" y="445" width="10" height="435" as="geometry" />
        </mxCell>
        <mxCell id="-cSc5FBcqZ1iEUzsDInX-105" value="int(10)" style="text;html=1;align=center;verticalAlign=middle;resizable=0;points=[];autosize=1;strokeColor=none;fillColor=none;fontSize=18;" vertex="1" parent="1">
          <mxGeometry x="275" y="445" width="70" height="40" as="geometry" />
        </mxCell>
        <mxCell id="-cSc5FBcqZ1iEUzsDInX-106" value="varchar(150)" style="text;html=1;align=center;verticalAlign=middle;resizable=0;points=[];autosize=1;strokeColor=none;fillColor=none;fontSize=18;" vertex="1" parent="1">
          <mxGeometry x="265" y="480" width="130" height="40" as="geometry" />
        </mxCell>
        <mxCell id="-cSc5FBcqZ1iEUzsDInX-107" value="varchar(255)" style="text;html=1;align=center;verticalAlign=middle;resizable=0;points=[];autosize=1;strokeColor=none;fillColor=none;fontSize=18;" vertex="1" parent="1">
          <mxGeometry x="265" y="520" width="130" height="40" as="geometry" />
        </mxCell>
        <mxCell id="-cSc5FBcqZ1iEUzsDInX-108" value="decimal(10,2)" style="text;html=1;align=center;verticalAlign=middle;resizable=0;points=[];autosize=1;strokeColor=none;fillColor=none;fontSize=18;" vertex="1" parent="1">
          <mxGeometry x="267" y="555" width="130" height="40" as="geometry" />
        </mxCell>
        <mxCell id="-cSc5FBcqZ1iEUzsDInX-109" value="varchar(255)" style="text;html=1;align=center;verticalAlign=middle;resizable=0;points=[];autosize=1;strokeColor=none;fillColor=none;fontSize=18;" vertex="1" parent="1">
          <mxGeometry x="264" y="595" width="130" height="40" as="geometry" />
        </mxCell>
        <mxCell id="-cSc5FBcqZ1iEUzsDInX-110" value="int(10)" style="text;html=1;align=center;verticalAlign=middle;resizable=0;points=[];autosize=1;strokeColor=none;fillColor=none;fontSize=18;" vertex="1" parent="1">
          <mxGeometry x="275" y="640" width="70" height="40" as="geometry" />
        </mxCell>
        <mxCell id="-cSc5FBcqZ1iEUzsDInX-111" value="varchar(10)" style="text;html=1;align=center;verticalAlign=middle;resizable=0;points=[];autosize=1;strokeColor=none;fillColor=none;fontSize=18;" vertex="1" parent="1">
          <mxGeometry x="265" y="680" width="120" height="40" as="geometry" />
        </mxCell>
        <mxCell id="-cSc5FBcqZ1iEUzsDInX-112" value="varchar(10)" style="text;html=1;align=center;verticalAlign=middle;resizable=0;points=[];autosize=1;strokeColor=none;fillColor=none;fontSize=18;" vertex="1" parent="1">
          <mxGeometry x="265" y="720" width="120" height="40" as="geometry" />
        </mxCell>
        <mxCell id="-cSc5FBcqZ1iEUzsDInX-114" value="Type" style="text;html=1;align=center;verticalAlign=middle;resizable=0;points=[];autosize=1;strokeColor=none;fillColor=none;fontSize=18;" vertex="1" parent="1">
          <mxGeometry x="275" y="760" width="60" height="40" as="geometry" />
        </mxCell>
        <mxCell id="-cSc5FBcqZ1iEUzsDInX-115" value="Type" style="text;html=1;align=center;verticalAlign=middle;resizable=0;points=[];autosize=1;strokeColor=none;fillColor=none;fontSize=18;" vertex="1" parent="1">
          <mxGeometry x="275" y="800" width="60" height="40" as="geometry" />
        </mxCell>
        <mxCell id="-cSc5FBcqZ1iEUzsDInX-116" value="Type" style="text;html=1;align=center;verticalAlign=middle;resizable=0;points=[];autosize=1;strokeColor=none;fillColor=none;fontSize=18;" vertex="1" parent="1">
          <mxGeometry x="275" y="840" width="60" height="40" as="geometry" />
        </mxCell>
        <mxCell id="-cSc5FBcqZ1iEUzsDInX-117" value="" style="line;strokeWidth=2;direction=south;html=1;fontSize=18;" vertex="1" parent="1">
          <mxGeometry x="384" y="405" width="10" height="475" as="geometry" />
        </mxCell>
        <mxCell id="-cSc5FBcqZ1iEUzsDInX-118" value="" style="line;strokeWidth=2;html=1;fontSize=18;" vertex="1" parent="1">
          <mxGeometry x="10" y="880" width="380" height="10" as="geometry" />
        </mxCell>
      </root>
    </mxGraphModel>
  </diagram>
</mxfile>
